<svg width="30" height="24" viewBox="0 0 30 24" fill="none" xmlns="http://www.w3.org/2000/svg">
<path d="M11.7586 5.05562L9.23292 13.0331C9.07722 13.5249 8.62084 13.8591 8.105 13.8591H2.0219C1.3685 13.8591 0.838806 13.3294 0.838806 12.676C0.838806 12.0226 1.3685 11.4929 2.0219 11.4929H7.23859L10.6157 0.826002C10.963 -0.270881 12.513 -0.276864 12.8688 0.817305L18.9091 19.3966L21.8699 12.2246C22.0527 11.7818 22.4845 11.4929 22.9635 11.4929H27.9781C28.6315 11.4929 29.1612 12.0226 29.1612 12.676C29.1612 13.3294 28.6315 13.8591 27.9781 13.8591H23.755L19.8706 23.2683C19.4508 24.2851 17.992 24.2288 17.6519 23.1827L11.7586 5.05562Z" fill="#042558"/>
</svg>
