<svg width="17" height="14" viewBox="0 0 17 14" fill="none" xmlns="http://www.w3.org/2000/svg">
<path d="M16.3236 2.25802C16.3236 1.65916 16.0857 1.08482 15.6623 0.661359C15.2388 0.237898 14.6645 0 14.0656 0H3.18948C2.59061 0 2.01628 0.237898 1.59282 0.661359C1.16936 1.08482 0.931458 1.65916 0.931458 2.25802V13.6234C0.932654 13.6956 0.954576 13.7659 0.994612 13.8259C1.03465 13.886 1.09111 13.9332 1.15726 13.9621L1.30779 13.9997C1.40443 14.0034 1.49877 13.9697 1.57123 13.9056L4.73246 10.9702H14.0656C14.6645 10.9702 15.2388 10.7323 15.6623 10.3089C16.0857 9.8854 16.3236 9.31106 16.3236 8.7122V2.25802ZM15.571 8.7122C15.571 9.11144 15.4124 9.49433 15.1301 9.77664C14.8477 10.0589 14.4649 10.2175 14.0656 10.2175H4.58193C4.48529 10.2139 4.39095 10.2476 4.31849 10.3116L1.68413 12.7578V2.25802C1.68413 1.85878 1.84273 1.47589 2.12504 1.19358C2.40734 0.911273 2.79024 0.752674 3.18948 0.752674H14.0656C14.4649 0.752674 14.8477 0.911273 15.1301 1.19358C15.4124 1.47589 15.571 1.85878 15.571 2.25802V8.7122Z" fill="#102745"/>
<path d="M12.7673 2.63436H4.43139C4.33158 2.63436 4.23586 2.67401 4.16528 2.74458C4.0947 2.81516 4.05505 2.91088 4.05505 3.01069C4.05505 3.11051 4.0947 3.20623 4.16528 3.27681C4.23586 3.34738 4.33158 3.38703 4.43139 3.38703H12.7673C12.8671 3.38703 12.9628 3.34738 13.0334 3.27681C13.1039 3.20623 13.1436 3.11051 13.1436 3.01069C13.1436 2.91088 13.1039 2.81516 13.0334 2.74458C12.9628 2.67401 12.8671 2.63436 12.7673 2.63436Z" fill="#102745"/>
<path d="M12.7673 5.04292H4.43139C4.33158 5.04292 4.23586 5.08257 4.16528 5.15314C4.0947 5.22372 4.05505 5.31944 4.05505 5.41925C4.05505 5.51906 4.0947 5.61479 4.16528 5.68536C4.23586 5.75594 4.33158 5.79559 4.43139 5.79559H12.7673C12.8671 5.79559 12.9628 5.75594 13.0334 5.68536C13.1039 5.61479 13.1436 5.51906 13.1436 5.41925C13.1436 5.31944 13.1039 5.22372 13.0334 5.15314C12.9628 5.08257 12.8671 5.04292 12.7673 5.04292Z" fill="#102745"/>
<path d="M8.62755 7.45147H4.43139C4.33158 7.45147 4.23586 7.49112 4.16528 7.5617C4.0947 7.63227 4.05505 7.728 4.05505 7.82781C4.05505 7.92762 4.0947 8.02334 4.16528 8.09392C4.23586 8.16449 4.33158 8.20414 4.43139 8.20414H8.62755C8.72736 8.20414 8.82308 8.16449 8.89366 8.09392C8.96423 8.02334 9.00388 7.92762 9.00388 7.82781C9.00388 7.728 8.96423 7.63227 8.89366 7.5617C8.82308 7.49112 8.72736 7.45147 8.62755 7.45147Z" fill="#102745"/>
</svg>
