<svg width="28" height="24" viewBox="0 0 28 24" fill="none" xmlns="http://www.w3.org/2000/svg">
<path d="M13.2523 11.738C13.3284 11.821 13.421 11.8874 13.5241 11.9327C13.6272 11.9781 13.7386 12.0015 13.8513 12.0015C13.964 12.0015 14.0754 11.9781 14.1785 11.9327C14.2816 11.8874 14.3742 11.821 14.4503 11.738L19.5552 6.38312C19.9105 6.00403 20.1861 5.55734 20.3653 5.06962C20.5446 4.5819 20.624 4.06311 20.5987 3.5441C20.5734 3.0251 20.444 2.51647 20.2182 2.04847C19.9924 1.58048 19.6748 1.16267 19.2843 0.819895C18.5771 0.233649 17.6707 -0.0567861 16.7545 0.00921462C15.8382 0.0752153 14.9829 0.492551 14.367 1.17411L13.8461 1.72626L13.3252 1.18452C12.7121 0.499145 11.8572 0.0781942 10.9401 0.0101923C10.023 -0.0578097 9.11535 0.232436 8.40788 0.819895C8.01933 1.1642 7.70371 1.58287 7.47966 2.05118C7.2556 2.51949 7.12766 3.02795 7.10338 3.54653C7.0791 4.06511 7.15898 4.5833 7.3383 5.0705C7.51762 5.55769 7.79275 6.00402 8.14743 6.38312L13.2523 11.738ZM26.7957 15.3739C26.5149 15.14 26.161 15.0119 25.7956 15.0119C25.4301 15.0119 25.0762 15.14 24.7954 15.3739L20.5136 18.8431C19.982 19.27 19.3201 19.5016 18.6384 19.4994H13.096C12.8971 19.4994 12.7063 19.4204 12.5656 19.2797C12.4249 19.139 12.3459 18.9483 12.3459 18.7493C12.3459 18.5504 12.4249 18.3596 12.5656 18.2189C12.7063 18.0782 12.8971 17.9992 13.096 17.9992H16.7631C17.1287 18.0066 17.4853 17.8855 17.7709 17.6571C18.0564 17.4287 18.2528 17.1073 18.3258 16.7491C18.3622 16.5339 18.3512 16.3135 18.2936 16.103C18.236 15.8926 18.1332 15.6972 17.9924 15.5306C17.8515 15.364 17.676 15.2301 17.4781 15.1382C17.2802 15.0464 17.0647 14.9988 16.8465 14.9988H9.3455C8.0824 14.9989 6.85766 15.4329 5.8763 16.2282L3.68852 17.9992H1.09443C0.89549 17.9992 0.704699 18.0782 0.564028 18.2189C0.423358 18.3596 0.34433 18.5504 0.34433 18.7493V23.2499C0.34433 23.4488 0.423358 23.6396 0.564028 23.7803C0.704699 23.921 0.89549 24 1.09443 24H17.8258C18.507 23.9989 19.1678 23.7676 19.701 23.3437L26.7853 17.6763C26.9561 17.539 27.0951 17.3663 27.1925 17.17C27.2899 16.9737 27.3434 16.7586 27.3493 16.5395C27.3553 16.3205 27.3135 16.1028 27.2269 15.9015C27.1403 15.7002 27.0109 15.5202 26.8478 15.3739H26.7957Z" fill="#4F4F4F"/>
</svg>
