<svg width="25" height="24" viewBox="0 0 25 24" fill="none" xmlns="http://www.w3.org/2000/svg">
<path d="M19.8527 15C18.9627 15 18.0927 15.2639 17.3527 15.7584C16.6126 16.2529 16.0359 16.9557 15.6953 17.7779C15.3547 18.6002 15.2656 19.505 15.4392 20.3779C15.6128 21.2508 16.0414 22.0526 16.6707 22.682C17.3001 23.3113 18.1019 23.7399 18.9748 23.9135C19.8477 24.0872 20.7525 23.9981 21.5748 23.6575C22.3971 23.3169 23.0999 22.7401 23.5943 22.0001C24.0888 21.26 24.3527 20.39 24.3527 19.5C24.3527 18.3065 23.8786 17.1619 23.0347 16.318C22.1908 15.4741 21.0462 15 19.8527 15ZM21.6677 18.6712L20.5427 21.2962C20.4961 21.4113 20.4217 21.5129 20.3262 21.5921C20.2306 21.6713 20.1169 21.7256 19.9952 21.75C19.9479 21.7555 19.9001 21.7555 19.8527 21.75C19.6541 21.7492 19.464 21.6696 19.324 21.5288L18.199 20.4038C18.0761 20.2603 18.0119 20.0757 18.0192 19.887C18.0265 19.6982 18.1047 19.5191 18.2383 19.3856C18.3719 19.252 18.5509 19.1738 18.7397 19.1665C18.9284 19.1592 19.113 19.2234 19.2565 19.3462L19.6015 19.6875L20.2877 18.0787C20.3663 17.8957 20.5143 17.7515 20.6993 17.6776C20.8843 17.6038 21.091 17.6064 21.274 17.685C21.457 17.7636 21.6013 17.9116 21.6751 18.0966C21.749 18.2815 21.7463 18.4883 21.6677 18.6712Z" fill="#4F4F4F"/>
<path d="M0.667728 18.5887C0.772728 19.7737 1.88648 20.6887 3.32273 20.76L4.03148 20.7937C6.78773 20.9287 9.60398 21 12.409 21H14.044C13.9152 20.5105 13.8509 20.0062 13.8527 19.5V19.4625C13.8597 18.3266 14.189 17.2161 14.8023 16.26C15.4156 15.3039 16.2877 14.5415 17.3172 14.0615C18.3467 13.5815 19.4913 13.4036 20.618 13.5485C21.7446 13.6934 22.8069 14.1551 23.6815 14.88C23.8862 15.0479 24.078 15.2309 24.2552 15.4275C24.4323 11.9334 24.3671 8.43131 24.0602 4.94625L24.0377 4.6575C23.9327 3.47625 22.819 2.56125 21.3902 2.49L21.0152 2.47125L19.4777 2.4V0.75C19.4777 0.551088 19.3987 0.360322 19.2581 0.21967C19.1174 0.0790178 18.9266 0 18.7277 0C18.5288 0 18.338 0.0790178 18.1974 0.21967C18.0567 0.360322 17.9777 0.551088 17.9777 0.75V2.34375C14.1077 2.21625 10.219 2.22 6.35273 2.34375V0.75C6.35273 0.551088 6.27371 0.360322 6.13306 0.21967C5.9924 0.0790178 5.80164 0 5.60273 0C5.40381 0 5.21305 0.0790178 5.0724 0.21967C4.93175 0.360322 4.85273 0.551088 4.85273 0.75V2.41875L3.67898 2.47125L3.30398 2.49C1.87523 2.56125 0.761478 3.47625 0.656478 4.665L0.633978 4.9425C0.243987 9.38771 0.243987 13.8585 0.633978 18.3037L0.667728 18.5887ZM3.66773 7.75875C9.45009 7.41374 15.2479 7.41374 21.0302 7.75875C21.2291 7.76472 21.4175 7.84946 21.554 7.99433C21.6904 8.1392 21.7637 8.33234 21.7577 8.53125C21.7518 8.73016 21.667 8.91856 21.5221 9.05499C21.3773 9.19142 21.1841 9.26472 20.9852 9.25875H20.9402C15.2179 8.91374 9.48003 8.91374 3.75773 9.25875C3.55882 9.27068 3.36331 9.20311 3.21422 9.0709C3.06513 8.93869 2.97466 8.75266 2.96273 8.55375C2.95079 8.35484 3.01836 8.15933 3.15058 8.01024C3.28279 7.86115 3.46882 7.77068 3.66773 7.75875Z" fill="#4F4F4F"/>
</svg>
