<svg width="13" height="10" viewBox="0 0 13 10" fill="none" xmlns="http://www.w3.org/2000/svg">
<path d="M1.1553 8.95262L1.61665 9.75062C1.67899 9.86284 1.60418 10 1.46702 10H0.170265C0.0455767 10 -0.0417051 9.86284 0.020639 9.75062L0.481986 8.95262C0.319891 8.8404 0.195203 8.6409 0.195203 8.42893C0.195203 8.19202 0.319891 7.99252 0.519392 7.89277V3.71571L6.34234 0.0374065C6.42962 -0.0124688 6.54184 -0.0124688 6.61665 0.0374065L12.0905 3.50374C12.2526 3.60349 12.2526 3.8404 12.0905 3.95262L6.61665 7.40648C6.52937 7.45636 6.41715 7.45636 6.34234 7.40648L1.13036 4.11471V7.8803C1.3174 7.98005 1.44209 8.19202 1.44209 8.41646C1.45455 8.65337 1.32987 8.85287 1.1553 8.95262ZM6.61665 8.14214C6.52937 8.20449 6.41715 8.20449 6.32987 8.14214L6.14283 8.01746L2.60169 5.78554C2.5144 5.72319 2.38972 5.79801 2.38972 5.89776V7.34414C2.38972 7.39402 2.41465 7.43142 2.45206 7.45636L6.34234 9.90025C6.42962 9.95012 6.54184 9.95012 6.61665 9.90025L10.5069 7.45636C10.5443 7.43142 10.5693 7.38155 10.5693 7.34414V5.89776C10.5693 5.78554 10.4446 5.72319 10.3573 5.78554L6.81615 8.01746L6.61665 8.14214Z" fill="#4F4F4F"/>
</svg>
