<svg width="30" height="24" viewBox="0 0 30 24" fill="none" xmlns="http://www.w3.org/2000/svg">
<path d="M14.6097 16.9291C13.0909 16.9291 11.8496 15.7725 11.6777 14.293C7.373 13.7883 3.4698 12.191 0.713364 9.78077V21.4241C0.713364 22.8447 1.79875 24 3.13215 24H26.2137C27.5471 24 28.6325 22.8447 28.6325 21.4241V9.67395C25.8687 12.1504 21.9324 13.7822 17.554 14.293C17.3809 15.7737 16.1347 16.9291 14.6097 16.9291Z" fill="#4F4F4F"/>
<path d="M5.88858 1.60596H4.23595V2.4998H5.88858V1.60596Z" fill="#4F4F4F"/>
<path d="M26.792 3.55823H2.55507C1.12222 3.55823 0 4.70377 0 6.1661V6.70019C0 7.30919 0.24679 7.89485 0.696168 8.35037C3.83691 11.5279 9.04036 13.4249 14.6134 13.4249C15.366 13.4249 16.1076 13.3881 16.8394 13.3205C16.8517 13.3156 16.8603 13.3058 16.8738 13.3021C16.9499 13.2776 17.0273 13.2739 17.1022 13.2862C21.8931 12.7975 26.1585 10.9226 28.8179 8.04464C29.1593 7.6763 29.3471 7.15448 29.3471 6.5811V6.11207C29.3471 4.705 28.2016 3.55823 26.792 3.55823Z" fill="#4F4F4F"/>
<path d="M16.4723 14.4035C15.8572 14.4489 15.2408 14.4857 14.6146 14.4857C13.9835 14.4857 13.3598 14.4514 12.7385 14.4047C12.9411 15.2261 13.7011 15.8707 14.6109 15.8707C15.5134 15.8695 16.266 15.2433 16.4723 14.4035Z" fill="#4F4F4F"/>
<path d="M19.3773 1.05346C19.3773 0.472707 18.9046 0 18.3226 0H11.0245C10.4425 0 9.96982 0.471479 9.96982 1.05346V2.49982H19.3773V1.05346Z" fill="#4F4F4F"/>
<path d="M25.1112 2.4998V1.60596H23.9411H23.4598V2.4998H23.9411H25.1112Z" fill="#4F4F4F"/>
</svg>
