<svg width="15" height="14" viewBox="0 0 15 14" fill="none" xmlns="http://www.w3.org/2000/svg">
<path fill-rule="evenodd" clip-rule="evenodd" d="M14.9315 7.11667C14.9315 6.125 14.1554 5.6 13.0667 5.6H9.93861C10.1565 4.7446 10.2667 3.96153 10.2667 3.26667C10.2667 0.567 9.50555 0 8.86668 0C8.42475 0 8.12235 0.0462 7.69581 0.2982C7.57915 0.367267 7.49841 0.483 7.47415 0.616467L7.01448 3.14393C6.52121 4.473 5.23741 5.61727 4.20001 6.41993V13.0755C4.55748 13.0755 4.96301 13.2762 5.39281 13.489C5.90008 13.7401 6.42415 14 7.00001 14H11.4333C12.3657 14 13.0625 13.2608 13.0625 12.6C13.0625 12.4726 13.0489 12.3564 13.027 12.2514C13.6038 12.0377 13.9981 11.5491 13.9981 10.9667C13.9981 10.689 13.9491 10.4482 13.8479 10.2363C14.2007 9.98713 14.5581 9.57973 14.5581 9.1C14.5581 8.83867 14.4373 8.52647 14.2595 8.31367C14.6655 8.0094 14.9315 7.56 14.9315 7.11667ZM13.9533 7.11667C13.9533 7.70747 13.3261 7.77747 13.2491 8.06447C13.1637 8.3804 13.6267 8.50687 13.6267 9.06127C13.6267 9.6446 12.9225 9.6376 12.8259 9.9386C12.712 10.2956 13.0573 10.3931 13.0573 10.9667C13.0573 11.0026 13.0536 11.0371 13.0419 11.0712C12.9458 11.5509 12.2323 11.564 12.1095 11.7614C11.9784 11.9728 12.1282 12.1044 12.1282 12.6C12.1282 12.8721 11.8221 13.0667 11.4333 13.0667H7.00001C6.64255 13.0667 6.23701 12.8655 5.80721 12.6527C5.44041 12.4712 5.06428 12.285 4.66668 12.1959V7.2408C5.82401 6.3546 7.32528 5.03767 7.90581 3.42487C7.91421 3.4006 7.92121 3.3754 7.92588 3.3502L8.35148 1.00753C8.49241 0.9478 8.62215 0.933333 8.86668 0.933333C8.96981 0.933333 9.33335 1.49193 9.33335 3.26667C9.33335 3.9452 9.21248 4.7292 8.97355 5.6H8.85781C8.60021 5.6 8.39115 5.8086 8.39115 6.06667C8.39115 6.32473 8.60021 6.53333 8.85781 6.53333H13.0667C13.5259 6.53333 13.9533 6.7522 13.9533 7.11667Z" fill="#102745"/>
<path fill-rule="evenodd" clip-rule="evenodd" d="M3.73333 14H0.933333C0.4186 14 0 13.5814 0 13.0667V6.53333C0 6.0186 0.4186 5.6 0.933333 5.6H3.73333C4.24807 5.6 4.66667 6.0186 4.66667 6.53333V13.0667C4.66667 13.5814 4.24807 14 3.73333 14ZM0.933333 6.53333V13.0667H3.73193L3.73333 6.53333H0.933333Z" fill="#102745"/>
</svg>
