<svg width="30" height="30" viewBox="0 0 30 30" fill="none" xmlns="http://www.w3.org/2000/svg">
<g clip-path="url(#clip0)">
<path d="M25.5604 25.5613H21.1154V18.6C21.1154 16.94 21.0857 14.8031 18.8035 14.8031C16.4884 14.8031 16.1341 16.6118 16.1341 18.4792V25.5609H11.6892V11.2456H15.9563V13.202H16.0161C16.4431 12.4718 17.0602 11.8711 17.8017 11.4639C18.5431 11.0566 19.3811 10.8581 20.2264 10.8895C24.7317 10.8895 25.5623 13.853 25.5623 17.7082L25.5604 25.5613ZM6.67356 9.28895C5.24891 9.28919 4.09379 8.13442 4.09355 6.70977C4.09332 5.28511 5.24797 4.12999 6.67262 4.12975C8.09727 4.1294 9.25238 5.28417 9.25262 6.70883C9.25274 7.39298 8.98109 8.04915 8.49743 8.53302C8.01376 9.01688 7.3577 9.2888 6.67356 9.28895ZM8.89613 25.5614H4.44641V11.2456H8.89602V25.5613L8.89613 25.5614ZM27.7764 0.00157308H2.21281C1.00461 -0.0120207 0.0137891 0.955835 -0.000976562 2.16404V27.8344C0.0133203 29.0432 1.00402 30.012 2.2127 29.9994H27.7764C28.9877 30.0144 29.9823 29.0456 29.999 27.8344V2.16205C29.9818 0.951499 28.9871 -0.0162395 27.7764 -0.000419113" fill="#0A66C2"/>
</g>
<defs>
<clipPath id="clip0">
<rect width="30" height="30" fill="white"/>
</clipPath>
</defs>
</svg>
