<svg width="27" height="24" viewBox="0 0 27 24" fill="none" xmlns="http://www.w3.org/2000/svg">
<path d="M24.4342 0H3.25999C1.90756 0 0.81073 1.09651 0.81073 2.44926V16.6548C0.81073 18.0079 1.90756 19.1044 3.25999 19.1044H4.59928C4.26413 20.155 3.48705 21.994 1.76612 24C1.76612 24 7.57226 22.8987 9.67291 19.1044H24.4339C25.7867 19.1044 26.8835 18.0079 26.8835 16.6548V2.44926C26.8835 1.09651 25.787 0 24.4342 0ZM20.2948 13.2184H7.39971C7.11364 13.2184 6.88209 12.9868 6.88209 12.7011C6.88209 12.4153 7.11396 12.1838 7.39971 12.1838H20.2951C20.5809 12.1838 20.8121 12.4156 20.8121 12.7011C20.8121 12.9868 20.5806 13.2184 20.2948 13.2184ZM20.2948 9.79544H7.39971C7.11364 9.79544 6.88209 9.56389 6.88209 9.27814C6.88209 8.99238 7.11396 8.76083 7.39971 8.76083H20.2951C20.5809 8.76083 20.8121 8.9927 20.8121 9.27814C20.8121 9.56389 20.5806 9.79544 20.2948 9.79544ZM20.2948 6.37282H7.39971C7.11364 6.37282 6.88209 6.14095 6.88209 5.85552C6.88209 5.56977 7.11396 5.33789 7.39971 5.33789H20.2951C20.5809 5.33789 20.8121 5.56977 20.8121 5.85552C20.8121 6.14095 20.5806 6.37282 20.2948 6.37282Z" fill="#4F4F4F"/>
</svg>
