<svg width="31" height="24" viewBox="0 0 31 24" fill="none" xmlns="http://www.w3.org/2000/svg">
<path d="M15.5006 4.79474C13.1605 4.79474 11.5706 6.61899 11.5706 8.87002C11.5706 11.1204 13.1605 12.9456 15.5006 12.9456C17.8398 12.9456 19.4301 11.1204 19.4301 8.87002C19.4304 6.61899 17.8401 4.79474 15.5006 4.79474Z" fill="#4F4F4F"/>
<path d="M15.5003 13.8811C15.4899 13.8811 15.4798 13.8791 15.4687 13.8791V13.8827C11.6795 13.9157 8.61737 16.8777 8.61737 20.5314C8.6699 21.6052 9.05133 22.8092 9.67159 23.4973C10.2661 24.1929 21.1042 24.1417 21.3294 23.4973C21.9496 22.8095 22.3304 21.6052 22.3833 20.5314C22.3833 16.8777 19.3214 13.9157 15.532 13.8827V13.8791C15.5219 13.8791 15.5108 13.8811 15.5003 13.8811Z" fill="#4F4F4F"/>
<path d="M23.3001 8.15121C25.6396 8.15121 27.2292 6.32566 27.2292 4.07528C27.2292 1.8249 25.6396 0 23.3001 0C20.96 0 19.3704 1.8249 19.3704 4.07528C19.3704 6.32566 20.96 8.15121 23.3001 8.15121Z" fill="#4F4F4F"/>
<path d="M7.70149 0C5.36139 0 3.77141 1.8249 3.77141 4.07528C3.77141 6.32566 5.36139 8.15121 7.70149 8.15121C10.0406 8.15121 11.6306 6.32566 11.6306 4.07528C11.6306 1.8249 10.0406 0 7.70149 0Z" fill="#4F4F4F"/>
<path d="M23.3315 9.08798V9.08472C23.3213 9.08472 23.3109 9.08602 23.2995 9.08602C23.289 9.08602 23.2786 9.08472 23.2682 9.08472V9.08798C22.2563 9.09614 21.2974 9.31573 20.4341 9.69943C20.2102 11.2428 19.3668 12.5188 18.1517 13.2713C20.8138 14.1979 22.8286 16.4581 23.3262 19.205C26.1763 19.2028 29.0147 19.0292 29.1282 18.7026C29.7485 18.0144 30.1292 16.8105 30.1824 15.7367C30.1831 12.0833 27.1209 9.12061 23.3315 9.08798Z" fill="#4F4F4F"/>
<path d="M7.67376 19.205C8.17199 16.4584 10.1868 14.1979 12.8489 13.2713C11.6342 12.5188 10.7934 11.2428 10.5692 9.70074C9.70487 9.31605 8.74495 9.09614 7.73249 9.08798V9.08472C7.72205 9.08472 7.71128 9.08602 7.70084 9.08602C7.6904 9.08602 7.67996 9.08472 7.66887 9.08472V9.08798C3.87941 9.12061 0.817566 12.0833 0.817566 15.7367C0.87075 16.8105 1.25152 18.0141 1.87211 18.7026C2.16349 19.0435 4.91634 19.2047 7.67376 19.205Z" fill="#4F4F4F"/>
</svg>
