<svg width="22" height="24" viewBox="0 0 22 24" fill="none" xmlns="http://www.w3.org/2000/svg">
<path d="M9.86414 24C10.5984 23.9976 11.3136 23.7658 11.9097 23.3372C12.5059 22.9086 12.9533 22.3044 13.1895 21.6092H6.53128C6.76736 22.306 7.21579 22.9113 7.81357 23.3401C8.41135 23.7689 9.12846 23.9997 9.86414 24Z" fill="#4F4F4F"/>
<path d="M18.8193 16.8689L18.0124 16.2834C17.8228 16.15 17.6683 15.9729 17.5618 15.7671C17.4553 15.5613 17.4 15.3329 17.4006 15.1011V12.365H17.1979C15.7542 12.366 14.3692 11.7937 13.3473 10.7739C12.3254 9.75414 11.7502 8.37031 11.7482 6.92661C11.751 5.85628 12.0724 4.81101 12.6715 3.92404C12.4445 3.83171 12.2127 3.75153 11.9772 3.68383C12.1998 3.31051 12.3165 2.88365 12.315 2.44902C12.3147 2.07207 12.2275 1.70025 12.0601 1.3625C11.8927 1.02475 11.6496 0.730168 11.3498 0.501657C11.05 0.273147 10.7016 0.11687 10.3315 0.0449812C9.96148 -0.0269076 9.57985 -0.0124709 9.2163 0.0871686C8.85275 0.186808 8.51708 0.368965 8.2354 0.619472C7.95372 0.86998 7.73363 1.18209 7.59223 1.53152C7.45083 1.88095 7.39194 2.25829 7.42014 2.63419C7.44833 3.01009 7.56286 3.37442 7.75481 3.69884C6.58545 4.06333 5.52262 4.70748 4.65841 5.57545C3.18651 7.04495 2.35312 9.03537 2.33892 11.1152V15.0936C2.33869 15.3248 2.28342 15.5526 2.17769 15.7582C2.07196 15.9638 1.91881 16.1412 1.7309 16.2759L0.916448 16.8689C0.538015 17.1417 0.255752 17.5273 0.110189 17.9705C-0.0353742 18.4137 -0.0367504 18.8917 0.106258 19.3357C0.249266 19.7797 0.529303 20.167 0.90616 20.442C1.28302 20.7169 1.73731 20.8654 2.2038 20.8661H17.5207C17.9881 20.8678 18.4441 20.7211 18.8228 20.447C19.2015 20.1729 19.4833 19.7857 19.6278 19.3411C19.7722 18.8965 19.7717 18.4175 19.6264 17.9732C19.4811 17.5289 19.1985 17.1422 18.8193 16.8689ZM11.189 3.48116C10.7568 3.40203 10.3185 3.36059 9.87913 3.3573C9.43058 3.35457 8.98291 3.39732 8.54299 3.48491C8.29864 3.18647 8.16592 2.81221 8.16766 2.4265C8.15686 2.19676 8.19278 1.96721 8.27326 1.75175C8.35373 1.53629 8.47709 1.3394 8.63586 1.17299C8.79462 1.00658 8.98551 0.874114 9.19695 0.783607C9.40839 0.693101 9.636 0.646435 9.866 0.646435C10.096 0.646435 10.3236 0.693101 10.535 0.783607C10.7465 0.874114 10.9374 1.00658 11.0961 1.17299C11.2549 1.3394 11.3783 1.53629 11.4587 1.75175C11.5392 1.96721 11.5751 2.19676 11.5643 2.4265C11.5634 2.8106 11.4309 3.18279 11.189 3.48116Z" fill="#4F4F4F"/>
<path d="M17.1867 2.23132C16.2598 2.23132 15.3538 2.50607 14.5831 3.02084C13.8123 3.5356 13.2115 4.26729 12.8565 5.12343C12.5014 5.97957 12.4082 6.92174 12.5884 7.83087C12.7687 8.74001 13.2144 9.5753 13.8693 10.2312C14.5241 10.8871 15.3587 11.3341 16.2675 11.5159C17.1764 11.6976 18.1187 11.6058 18.9754 11.2522C19.8321 10.8985 20.5648 10.2988 21.0808 9.52894C21.5968 8.75902 21.873 7.85343 21.8744 6.9266C21.8744 5.68263 21.3808 4.48951 20.5019 3.60919C19.623 2.72887 18.4306 2.23331 17.1867 2.23132ZM18.3126 8.63807C17.9656 8.91095 17.5294 9.04476 17.0891 9.01339C16.6413 9.0298 16.1987 8.91359 15.8167 8.67935C15.7733 8.65098 15.7363 8.61392 15.7079 8.57051C15.676 8.51876 15.6603 8.45862 15.6629 8.39786C15.6636 8.31146 15.694 8.22794 15.7492 8.16141C15.7978 8.11382 15.8598 8.08221 15.9269 8.0708C15.9939 8.0594 16.0629 8.06875 16.1245 8.0976C16.3885 8.24516 16.6853 8.3239 16.9877 8.32655C17.2545 8.34277 17.5206 8.28566 17.7572 8.16141C17.8413 8.10048 17.9078 8.01841 17.95 7.92349C17.9922 7.82858 18.0085 7.72421 17.9974 7.62094C18.0021 7.53075 17.9864 7.44065 17.9513 7.35743C17.9162 7.27421 17.8626 7.20005 17.7947 7.14053C17.6296 7.01046 17.4228 6.94507 17.2129 6.95662C16.9226 6.95607 16.6379 7.03667 16.391 7.18932L16.3234 7.22686C16.2678 7.25542 16.2058 7.26961 16.1433 7.26814C16.0244 7.27133 15.9084 7.23133 15.8167 7.15555C15.7712 7.11866 15.7349 7.07161 15.7107 7.01816C15.6866 6.96472 15.6754 6.90636 15.6779 6.84778C15.674 6.79781 15.674 6.74762 15.6779 6.69765L15.9331 5.19637C15.9434 5.09759 15.9887 5.00575 16.0607 4.93739C16.1321 4.86851 16.228 4.83073 16.3272 4.8323H18.14C18.1849 4.83133 18.2295 4.83985 18.2709 4.85731C18.3123 4.87478 18.3495 4.90079 18.3802 4.93364C18.4125 4.96375 18.4379 5.00045 18.4547 5.04125C18.4715 5.08205 18.4794 5.12599 18.4778 5.17009C18.4785 5.21407 18.4702 5.25774 18.4534 5.2984C18.4366 5.33906 18.4117 5.37586 18.3802 5.40655C18.3486 5.43783 18.311 5.46255 18.2698 5.4793C18.2286 5.49605 18.1845 5.50448 18.14 5.50413H16.6087L16.466 6.44619C16.7353 6.33171 17.0254 6.2742 17.318 6.27729C17.579 6.27304 17.8369 6.33366 18.0687 6.45369C18.2748 6.56652 18.4432 6.73751 18.5528 6.94536C18.6647 7.16355 18.7214 7.40581 18.718 7.65097C18.7231 7.83752 18.6879 8.02299 18.6147 8.19466C18.5415 8.36633 18.4321 8.52014 18.2939 8.64557L18.3126 8.63807Z" fill="#EB5757"/>
</svg>
