<svg width="15" height="4" viewBox="0 0 15 4" fill="none" xmlns="http://www.w3.org/2000/svg">
<path d="M1.88298 3.76596C2.92292 3.76596 3.76596 2.92292 3.76596 1.88298C3.76596 0.843038 2.92292 0 1.88298 0C0.843038 0 0 0.843038 0 1.88298C0 2.92292 0.843038 3.76596 1.88298 3.76596Z" fill="#828282"/>
<path d="M7.50004 3.76596C8.53998 3.76596 9.38302 2.92292 9.38302 1.88298C9.38302 0.843038 8.53998 0 7.50004 0C6.4601 0 5.61707 0.843038 5.61707 1.88298C5.61707 2.92292 6.4601 3.76596 7.50004 3.76596Z" fill="#828282"/>
<path d="M13.117 3.76596C14.1569 3.76596 15 2.92292 15 1.88298C15 0.843038 14.1569 0 13.117 0C12.077 0 11.234 0.843038 11.234 1.88298C11.234 2.92292 12.077 3.76596 13.117 3.76596Z" fill="#828282"/>
</svg>
