<svg width="25" height="24" viewBox="0 0 25 24" fill="none" xmlns="http://www.w3.org/2000/svg">
<path d="M24.0031 22.5557L16.8448 15.393C18.383 13.5244 19.1421 11.1351 18.9646 8.72137C18.7871 6.30764 17.6866 4.05507 15.8916 2.43157C14.0967 0.808083 11.7453 -0.0615265 9.32589 0.00338962C6.90651 0.0683057 4.60514 1.06276 2.89982 2.78017C1.19451 4.49758 0.216343 6.80592 0.168526 9.2257C0.120709 11.6455 1.00691 13.9907 2.64305 15.7741C4.27919 17.5575 6.53948 18.6421 8.9544 18.8026C11.3693 18.963 13.7532 18.187 15.6109 16.6357L22.7692 23.7896C22.9366 23.9329 23.152 24.0079 23.3722 23.9993C23.5924 23.9908 23.8014 23.8995 23.9572 23.7437C24.1131 23.5878 24.2044 23.3789 24.2129 23.1587C24.2214 22.9384 24.1465 22.7231 24.0031 22.5557ZM1.94633 9.42928C1.94573 8.17556 2.25334 6.94091 2.84208 5.83402C3.43082 4.72714 4.28263 3.78195 5.32254 3.08166C6.36244 2.38137 7.55856 1.94745 8.80559 1.81811C10.0526 1.68876 11.3123 1.86795 12.4738 2.33991C13.6353 2.81186 14.663 3.56211 15.4664 4.5246C16.2697 5.4871 16.8242 6.63232 17.0809 7.85948C17.3376 9.08663 17.2888 10.3581 16.9386 11.5619C16.5884 12.7657 15.9477 13.865 15.0728 14.763C15.0571 14.7749 15.0425 14.788 15.029 14.8024C15.009 14.8217 14.99 14.8422 14.9721 14.8636C13.9009 15.9286 12.5381 16.6521 11.0558 16.9427C9.57358 17.2334 8.03843 17.0781 6.6444 16.4965C5.25037 15.9149 4.06003 14.9331 3.22382 13.6752C2.3876 12.4173 1.94305 10.9398 1.94633 9.42928Z" fill="#BDBDBD"/>
</svg>
