<svg width="31" height="26" viewBox="0 0 31 26" fill="none" xmlns="http://www.w3.org/2000/svg">
<path d="M0.837664 15.0078C-0.319336 15.6148 -0.271336 16.5038 0.941664 16.9838L4.53566 18.4058C5.74966 18.8878 7.58666 18.6248 8.61566 17.8218L24.2227 5.51381C25.2487 4.70681 25.3587 4.82581 24.4677 5.77981L12.1297 18.9858C11.2357 19.9368 11.4997 21.1048 12.7177 21.5758L13.1387 21.7398C14.3567 22.2108 16.3417 23.0018 17.5517 23.4938L21.5377 25.1168C22.7487 25.6088 24.0427 25.0288 24.3867 23.7688L30.4617 1.43881C30.8047 0.178809 30.1387 -0.356191 28.9817 0.249809L0.837664 15.0078Z" fill="#333333"/>
</svg>
