<svg width="22" height="14" viewBox="0 0 22 14" fill="none" xmlns="http://www.w3.org/2000/svg">
<path d="M13.4172 0.00378041C13.5025 0.0150457 13.5832 0.0488942 13.651 0.101823L21.3738 6.13524C21.4317 6.18037 21.4786 6.23815 21.5109 6.30415C21.5431 6.37015 21.5599 6.44264 21.5599 6.5161C21.5599 6.58956 21.5431 6.66205 21.5109 6.72805C21.4786 6.79405 21.4317 6.85181 21.3738 6.89694L13.651 12.9304C13.5799 12.985 13.495 13.0187 13.4059 13.0278C13.3167 13.0369 13.2267 13.021 13.1461 12.9818C13.0654 12.9427 12.9973 12.8819 12.9493 12.8062C12.9012 12.7305 12.8753 12.6429 12.8742 12.5533V10.1324C12.2626 10.1077 10.8963 10.0717 8.87706 10.419C6.46922 10.8331 3.5198 11.7858 1.12413 13.8806C1.04457 13.9502 0.944369 13.9918 0.838914 13.9989C0.733458 14.006 0.628576 13.9784 0.540369 13.9201C0.452162 13.8619 0.385506 13.7763 0.350635 13.6765C0.315765 13.5767 0.314606 13.4683 0.347338 13.3678C2.36264 7.15862 8.49715 4.19902 12.8742 3.02049V0.486454C12.8737 0.417658 12.8878 0.349539 12.9158 0.28667C12.9437 0.223802 12.9848 0.167636 13.0362 0.12193C13.0876 0.0762232 13.1482 0.0420396 13.2139 0.0216626C13.2796 0.00128564 13.3489 -0.00481362 13.4172 0.00378041ZM13.8395 1.46688V3.38249C13.8396 3.48954 13.8041 3.59357 13.7385 3.67821C13.673 3.76286 13.5812 3.82331 13.4775 3.85008C9.66524 4.81518 4.34525 7.26773 1.94619 12.0932C4.19171 10.5977 6.64523 9.82402 8.71114 9.4687C11.2311 9.03533 13.2267 9.16739 13.3795 9.17458C13.5036 9.18042 13.6206 9.23383 13.7063 9.32372C13.7919 9.41362 13.8397 9.53307 13.8395 9.65726V11.5653L20.2953 6.51985L13.8395 1.46688Z" fill="#102745"/>
</svg>
