<svg width="21" height="16" viewBox="0 0 21 16" fill="none" xmlns="http://www.w3.org/2000/svg">
<path d="M3.96191 0.5C1.82579 0.5 0.0909424 2.23485 0.0909424 4.37097V11.629C0.0909424 13.7652 1.82579 15.5 3.96191 15.5H16.5426C18.6787 15.5 20.4135 13.7652 20.4135 11.629V4.37097C20.4135 2.23485 18.6787 0.5 16.5426 0.5H3.96191ZM3.96191 1.46774H16.5426C18.1593 1.46774 19.4458 2.75423 19.4458 4.37097V11.629C19.4458 13.2458 18.1593 14.5323 16.5426 14.5323H3.96191C2.34518 14.5323 1.05868 13.2458 1.05868 11.629V4.37097C1.05868 2.75423 2.34518 1.46774 3.96191 1.46774ZM8.27895 4.37097C8.15728 4.38051 8.04371 4.43567 7.961 4.5254C7.87828 4.61512 7.83252 4.7328 7.83288 4.85484V11.1452C7.83118 11.2603 7.87059 11.3723 7.94403 11.461C8.01748 11.5497 8.12014 11.6092 8.23358 11.629C8.34814 11.6495 8.46624 11.6281 8.56624 11.5685L13.8888 8.42339C13.9626 8.38099 14.024 8.31986 14.0666 8.24619C14.1092 8.17251 14.1317 8.0889 14.1317 8.00378C14.1317 7.91866 14.1092 7.83503 14.0666 7.76136C14.024 7.68768 13.9626 7.62656 13.8888 7.58416L8.56624 4.439C8.4799 4.38695 8.37946 4.36316 8.27895 4.37097ZM8.80062 5.70916L12.6791 8L8.80062 10.2984V5.70916Z" fill="black"/>
</svg>
