<svg width="12" height="12" viewBox="0 0 12 12" fill="none" xmlns="http://www.w3.org/2000/svg">
<path d="M6 0C2.68657 0 0 2.68657 0 6C0 9.31343 2.68657 12 6 12C9.31343 12 12 9.31343 12 6C12 2.68657 9.31343 0 6 0ZM7.3049 0.665245C7.3049 0.703625 7.3177 0.754797 7.34328 0.818763C7.44563 1.07463 7.35608 1.27932 7.22814 1.53518C7.10021 1.79104 6.67804 1.63753 6.53731 1.48401C6.39659 1.34328 6.38379 1.25373 5.93603 1.44563C5.48827 1.63753 5.42431 1.07463 5.46269 0.767591C5.47548 0.678038 5.51386 0.601279 5.57783 0.52452C5.71855 0.511727 5.85927 0.511727 6.01279 0.511727C6.44776 0.511727 6.88273 0.5629 7.3049 0.665245ZM4.75906 1.75266C4.96375 1.91898 5.02772 2.17484 4.88699 2.46908C4.74627 2.76333 4.47761 2.76333 4.14499 2.66098C3.81237 2.55863 3.99147 1.70149 3.99147 1.48401C3.99147 1.26652 4.18337 0.933902 4.49041 0.959488C5.01493 0.997868 4.55437 1.57356 4.75906 1.75266ZM3.41578 2.31556C3.41578 2.07249 3.51812 1.82942 3.64606 1.82942C3.64606 1.82942 3.83795 1.80384 3.86354 2.13646C3.88913 2.46908 3.88913 2.59701 3.71002 2.71215C3.51812 2.82729 3.41578 2.57143 3.41578 2.31556ZM7.85501 11.1684C7.77825 11.1173 7.6887 11.0533 7.61194 10.9638C7.34328 10.6567 7.56077 10.3753 7.50959 9.82516C7.45842 9.27505 6.79318 9.39019 6.25586 9.26226C5.71855 9.13433 5.66738 9.53092 4.6951 9.31343C3.72281 9.09595 3.92751 8.21322 3.97868 7.56077C4.02985 6.90832 4.64392 6.79318 4.92537 6.55011C5.20682 6.30704 5.28358 6.62687 5.30917 6.30704C5.33475 5.98721 5.36034 6.07676 5.48827 6C5.6162 5.92324 5.53945 6.26866 6 6.06397C6.46055 5.85927 6.62687 5.98721 6.98507 6C7.34328 6.01279 7.52239 6.23028 7.6887 6.46055C7.85501 6.69083 8.34115 6.34542 8.54584 6.26866C8.75053 6.1919 8.95522 6.31983 9.41578 6.47335C9.87633 6.62687 9.81237 6.31983 9.95309 6.14072C10.0938 5.96162 10.1578 6.11514 10.3113 6C10.4648 5.88486 10.1706 5.89765 10.1706 5.66738C10.1706 5.4371 10.2601 5.14286 10.0171 5.18124C9.77399 5.21962 9.90192 5.38593 9.3646 5.36034C8.82729 5.33475 8.96802 5.18124 8.85288 4.91258C8.73774 4.64392 8.91684 4.65672 9.07036 4.40085C9.22388 4.14499 9.22388 4.27292 9.69723 4.33689C10.1706 4.40085 10.1578 4.19616 10.2857 3.9275C10.4136 3.65885 10.145 3.5693 9.62047 3.46695C9.09595 3.36461 9.08316 3.76119 9.10874 3.96588C9.13433 4.17058 9.05757 4.24733 8.9936 4.32409C8.92964 4.40085 8.73774 4.27292 8.71215 4.54158C8.68657 4.81023 8.6226 4.91258 8.54584 5.04051C8.46908 5.16844 8.28998 4.70789 8.04691 4.64392C7.80384 4.57996 7.77825 4.42644 7.73987 4.06823C7.70149 3.71002 7.43284 3.78678 7.25373 3.9275C7.07463 4.06823 7.27932 4.26013 7.27932 4.41365C7.27932 4.56716 7.40725 4.6823 7.76546 4.84861C8.12367 5.01493 7.94456 5.60341 7.81663 5.38593C7.6887 5.16844 7.6887 5.14286 7.42004 5.2452C7.15139 5.34755 7.36887 5.50107 7.18976 5.74414C7.01066 5.98721 6.72921 5.64179 6.86994 5.52665C7.01066 5.41151 6.9339 5.258 7.04904 5.07889C7.16418 4.89979 6.85714 4.81023 6.84435 4.63113C6.83156 4.45203 6.46055 4.36247 6.24307 4.19616C6.02559 4.02985 5.83369 4.17058 5.71855 4.40085C5.60341 4.63113 5.74414 4.92537 5.79531 5.11727C5.84648 5.30917 5.59062 5.42431 5.51386 5.64179C5.4371 5.85927 5.21962 6.02559 4.98934 5.89765C4.75906 5.76972 3.99147 5.87207 3.83795 5.59062C3.69723 5.30917 3.97868 4.95096 3.82516 4.64392C3.68443 4.33689 3.85075 3.97868 4.1322 3.78678C4.41365 3.59488 5.07889 3.83795 4.91258 3.60768C4.74627 3.3774 4.54158 3.30064 4.54158 3.01919C4.54158 2.73774 5.00213 2.76333 5.28358 2.63539C5.56503 2.50746 5.6162 2.39232 5.65458 2.20043C5.69296 2.00853 6.05117 2.2516 6.15352 2.12367C6.25586 1.99574 6.1791 1.91898 6.35821 1.6887C6.53731 1.45842 6.71642 1.75267 6.67804 1.84222C6.65245 1.93177 6.71642 2.0597 7.01066 2.23881C7.3049 2.41791 7.33049 2.09808 7.80384 1.84222C8.27718 1.58635 7.75267 1.40725 7.75267 1.10021C7.75267 0.985075 7.81663 0.908315 7.89339 0.84435C9.96589 1.58635 11.4883 3.62047 11.4883 6C11.4883 6.61407 11.3859 7.20256 11.2068 7.75267C11.1301 7.67591 11.0405 7.59915 10.9382 7.58635C10.6823 7.53518 10.6695 7.27932 10.6695 7.04904C10.6695 6.81876 10.4392 6.85714 10.1194 6.85714C9.79957 6.85714 10.0299 7.07463 10.0554 7.35608C10.081 7.63753 10.5416 7.73987 10.8742 8.02132C10.951 8.08529 11.0021 8.16205 11.0277 8.2516C10.4009 9.59488 9.26226 10.6567 7.85501 11.1684Z" fill="#828282"/>
</svg>
